<?xml version="1.0" encoding="UTF-8" standalone="no"?>
<svg
   version="1.1"
   id="Layer_1"
   x="0px"
   y="0px"
   viewBox="0 0 122.88 78.5"
   style="enable-background:new 0 0 122.88 78.5"
   xml:space="preserve"
   sodipodi:docname="apply.svg"
   inkscape:version="1.1 (c68e22c387, 2021-05-23)"
   xmlns:inkscape="http://www.inkscape.org/namespaces/inkscape"
   xmlns:sodipodi="http://sodipodi.sourceforge.net/DTD/sodipodi-0.dtd"
   xmlns="http://www.w3.org/2000/svg"
   xmlns:svg="http://www.w3.org/2000/svg"><defs
     id="defs11" /><sodipodi:namedview
     id="namedview9"
     pagecolor="#ffffff"
     bordercolor="#666666"
     borderopacity="1.0"
     inkscape:pageshadow="2"
     inkscape:pageopacity="0.0"
     inkscape:pagecheckerboard="0"
     showgrid="false"
     inkscape:zoom="6.6729881"
     inkscape:cx="57.470505"
     inkscape:cy="41.285852"
     inkscape:window-width="1920"
     inkscape:window-height="1137"
     inkscape:window-x="1912"
     inkscape:window-y="-8"
     inkscape:window-maximized="1"
     inkscape:current-layer="Layer_1" /><style
     type="text/css"
     id="style2">.st0{fill-rule:evenodd;clip-rule:evenodd;}</style><path
     class="st0"
     d="M 50.57,17.2 C 40.73,10.31 31,8.79 20.94,11.42 c 2.2,-5.29 5.51,-8.76 9.4,-10.39 5.51,-2.31 14.53,-0.67 18.08,4.27 1.82,2.52 2.73,6.26 2.15,11.9 z m 32.95,38.12 c -0.27,-1.12 0.43,-2.24 1.55,-2.51 1.12,-0.27 2.24,0.43 2.51,1.55 0.54,2.27 1.47,4.03 2.71,5.3 1.27,1.29 2.9,2.12 4.84,2.5 1.13,0.22 1.86,1.31 1.64,2.44 -0.22,1.13 -1.31,1.86 -2.44,1.64 -2.76,-0.55 -5.13,-1.76 -7,-3.67 -1.79,-1.82 -3.09,-4.22 -3.81,-7.25 z m -69.98,0 c -0.27,-1.12 0.43,-2.24 1.55,-2.51 1.12,-0.27 2.24,0.43 2.51,1.55 0.54,2.27 1.47,4.03 2.71,5.3 1.27,1.29 2.9,2.12 4.84,2.5 1.13,0.22 1.86,1.31 1.64,2.44 -0.22,1.13 -1.31,1.86 -2.44,1.64 -2.76,-0.55 -5.13,-1.76 -7,-3.67 -1.79,-1.82 -3.09,-4.22 -3.81,-7.25 z M 61.3,47.71 c 2.8,0 5.07,2.21 5.07,4.93 0,2.72 -2.27,4.93 -5.07,4.93 -2.8,0 -5.07,-2.21 -5.07,-4.93 0,-2.72 2.27,-4.93 5.07,-4.93 z M 26.66,34.57 c 10,0 18.11,7.88 18.11,17.61 0,9.72 -8.11,17.61 -18.11,17.61 -10,0 -18.11,-7.88 -18.11,-17.61 0,-9.73 8.1,-17.61 18.11,-17.61 z m 69.98,0 c 10,0 18.11,7.88 18.11,17.61 0,9.72 -8.11,17.61 -18.11,17.61 -10,0 -18.11,-7.88 -18.11,-17.61 0,-9.73 8.1,-17.61 18.11,-17.61 z M 72.31,17.2 C 82.15,10.31 91.88,8.79 101.93,11.42 99.73,6.13 96.42,2.66 92.53,1.03 87.02,-1.28 78,0.36 74.46,5.3 72.64,7.82 71.73,11.56 72.31,17.2 Z m 35.26,0.2 C 104.15,13.88 98.61,12.29 90.94,12.63 82.25,13.06 73.07,16.69 70.12,24.92 67.65,19.5 55.23,19.5 52.77,24.92 49.82,16.69 40.64,13.05 31.95,12.63 24.28,12.29 18.75,13.89 15.32,17.4 10.5,23.86 0.96,40.74 0.16,48.99 -3.1,82.47 44.92,90.87 52.62,56.3 c 4.37,7.75 13.27,7.75 17.64,0 7.7,34.58 55.72,26.17 52.46,-7.31 -0.8,-8.25 -10.34,-25.13 -15.15,-31.59 z"
     id="path4" /><path
     style="fill:#4d4d4d;stroke:#4d4d4d;stroke-width:0.566392;stroke-linecap:round"
     d="M 23.902335,78.287316 C 13.16656,77.255231 4.1825438,70.07811 1.2212726,60.167947 0.02491723,56.164236 -0.24771411,51.073356 0.52961178,47.252477 1.7726435,41.142462 7.2183881,29.758344 13.375726,20.398174 c 1.765563,-2.683946 2.413377,-3.446728 3.705984,-4.363683 2.015271,-1.429601 4.480735,-2.391775 7.566876,-2.953054 1.403863,-0.255322 2.370353,-0.316742 5.173136,-0.328749 4.589382,-0.01966 7.120996,0.350471 10.827448,1.583018 3.480346,1.157357 6.012218,2.660108 8.290821,4.920879 1.549444,1.537318 2.634692,3.053509 3.279378,4.581594 0.223799,0.530464 0.445099,1.002672 0.49178,1.049352 0.04668,0.04668 0.292765,-0.217292 0.546858,-0.586604 0.621118,-0.902761 1.46817,-1.604249 2.599515,-2.15279 3.369089,-1.63353 7.786167,-1.628541 11.203889,0.01265 0.925732,0.444537 2.282094,1.625514 2.869488,2.498446 l 0.246976,0.367033 0.271318,-0.674361 c 1.833808,-4.557913 6.002227,-8.084966 11.866463,-10.040651 7.717859,-2.573855 17.42842,-2.086289 22.608104,1.135151 2.11038,1.312524 2.96458,2.317146 5.78821,6.807489 5.83695,9.282374 10.58717,19.564908 11.743,25.419425 0.39634,2.007554 0.36144,7.018318 -0.0651,9.347609 -0.5879,3.210437 -1.4552,5.675999 -2.91236,8.279221 -6.60952,11.807982 -22.455665,16.552838 -34.807796,10.422598 -2.598001,-1.289361 -4.297741,-2.528101 -6.527434,-4.757074 -2.729718,-2.728838 -4.3656,-5.154493 -5.893247,-8.738399 -0.596596,-1.399631 -1.532377,-4.269691 -1.807463,-5.543527 -0.04895,-0.22666 -0.138288,-0.410771 -0.198533,-0.409136 -0.06025,0.0016 -0.311847,0.349042 -0.559113,0.772011 -0.599448,1.025412 -2.340061,2.80136 -3.417284,3.486659 -1.515433,0.964073 -2.660074,1.316945 -4.532565,1.397306 -1.543049,0.06622 -1.743267,0.04092 -2.939875,-0.371532 -2.224512,-0.766757 -4.152072,-2.304669 -5.500089,-4.38827 -0.293283,-0.45332 -0.55255,-0.852316 -0.57615,-0.886659 -0.102272,-0.148826 -0.22917,0.194788 -0.644702,1.745715 -2.689324,10.037587 -9.796247,17.332564 -19.104521,19.610038 -2.899425,0.709408 -6.068043,0.93568 -9.066403,0.647433 z m 6.291762,-8.761733 c 7.302381,-1.385239 13.001211,-7.047937 14.400871,-14.309567 0.279555,-1.450371 0.245894,-4.762769 -0.06437,-6.334165 C 43.27723,42.533889 38.591424,37.364664 32.284428,35.372285 28.747544,34.254985 24.379342,34.261574 20.92427,35.389425 14.261356,37.56442 9.4964596,43.214515 8.6216121,49.977611 7.2208907,60.806028 16.167338,70.290812 27.334467,69.816479 c 0.939822,-0.03992 2.226654,-0.170822 2.859629,-0.290895 z m 69.983643,0 c 3.53464,-0.670511 6.78898,-2.383829 9.3772,-4.936827 2.63574,-2.599878 4.17796,-5.433139 4.95171,-9.096964 0.35433,-1.677796 0.35796,-4.835415 0.008,-6.609941 -1.25337,-6.347962 -5.93918,-11.517187 -12.24617,-13.509566 -3.536886,-1.1173 -7.905088,-1.110711 -11.360161,0.01714 -7.431691,2.425948 -12.440239,9.166967 -12.453448,16.761126 -0.01746,10.03946 8.591947,18.102227 18.863645,17.665928 0.939822,-0.03992 2.226655,-0.170822 2.859634,-0.290895 z M 63.642577,57.055318 c 1.140324,-0.561438 1.798366,-1.239211 2.354676,-2.425275 0.514798,-1.097562 0.54111,-2.861232 0.05862,-3.929469 -0.964549,-2.135524 -3.337124,-3.374572 -5.663141,-2.957506 -3.304597,0.592533 -5.135129,3.973556 -3.764845,6.953732 0.890939,1.937669 2.614809,2.953741 4.892033,2.883434 0.927132,-0.02862 1.303867,-0.121788 2.122655,-0.524916 z"
     id="path871" /><path
     style="fill:#4d4d4d;stroke:#4d4d4d;stroke-width:0.566392;stroke-linecap:round"
     d="m 23.227975,65.872456 c -3.310938,-0.982806 -6.028077,-3.074258 -7.777295,-5.986385 -0.773562,-1.28784 -1.886041,-4.26609 -1.887612,-5.053382 -0.0021,-1.065602 1.260619,-2.141829 2.287086,-1.949262 0.953315,0.178842 1.39772,0.700261 1.840583,2.159543 1.146983,3.779443 3.446621,6.188455 6.683698,7.001582 1.280745,0.321713 1.891063,0.701512 2.159431,1.343808 0.277739,0.664723 0.272158,1.03627 -0.02497,1.662424 -0.506524,1.067421 -1.562284,1.331825 -3.280919,0.821672 z"
     id="path910" /><path
     style="fill:#4d4d4d;stroke:#4d4d4d;stroke-width:0.566392;stroke-linecap:round"
     d="m 93.811046,66.055208 c -3.501825,-0.844606 -6.495869,-3.050914 -8.376726,-6.172803 -0.772753,-1.282633 -1.886038,-4.26088 -1.887612,-5.049716 -0.0021,-1.065602 1.260619,-2.141829 2.287086,-1.949262 0.953315,0.178842 1.39772,0.700261 1.840583,2.159543 1.146983,3.779443 3.446621,6.188455 6.683698,7.001582 1.280745,0.321713 1.891063,0.701512 2.159431,1.343808 0.277739,0.664723 0.272158,1.03627 -0.02497,1.662424 -0.426617,0.899029 -1.480987,1.293972 -2.681488,1.004424 z"
     id="path949" /><path
     style="fill:#4d4d4d;stroke:#4d4d4d;stroke-width:0.566392;stroke-linecap:round"
     d="M 72.250314,15.40103 C 72.055318,12.227485 72.572027,9.1338864 73.683806,6.8185345 74.185015,5.7747347 74.52852,5.31475 75.586278,4.2709502 77.51425,2.3684195 79.563867,1.2958698 82.673896,0.56205107 c 1.5013,-0.35423549 1.9887,-0.39926416 4.243687,-0.39205573 2.993794,0.00957 4.12003,0.24492683 6.294032,1.31530406 3.193223,1.5721946 5.951861,4.4847978 7.851395,8.2896023 0.33857,0.6781503 0.61558,1.2924253 0.61558,1.3650543 0,0.07263 -0.52263,0.01015 -1.1614,-0.138845 C 97.359046,10.264468 93.186211,9.9638094 90.139528,10.253387 84.13729,10.82388 78.536294,12.91725 72.740074,16.756427 l -0.390583,0.258706 z"
     id="path988" /><path
     style="fill:#4d4d4d;stroke:#4d4d4d;stroke-width:0.566392;stroke-linecap:round"
     d="M 48.703818,15.853129 C 42.332158,11.85513 35.396866,9.8729086 28.8111,10.167461 c -2.609192,0.116698 -5.897424,0.593903 -7.501636,1.088677 -0.212682,0.0656 -0.12132,-0.213948 0.42993,-1.3154706 1.083829,-2.165735 2.193663,-3.7617239 3.695173,-5.3138189 2.043114,-2.111944 4.202417,-3.4237798 6.784882,-4.12200176 1.651171,-0.44642776 5.53209,-0.48566444 7.411898,-0.0749354 5.846976,1.27753616 9.312079,4.21158306 10.486129,8.87904296 0.401646,1.5967557 0.624092,4.4165247 0.491084,6.2251147 l -0.106447,1.447428 z"
     id="path1027" /></svg>
