<?xml version="1.0" encoding="UTF-8" standalone="no"?>
<svg
   data-name="Layer 1"
   viewBox="0 0 272 272"
   version="1.1"
   id="svg6"
   sodipodi:docname="help.svg"
   inkscape:version="1.1.1 (3bf5ae0d25, 2021-09-20)"
   xmlns:inkscape="http://www.inkscape.org/namespaces/inkscape"
   xmlns:sodipodi="http://sodipodi.sourceforge.net/DTD/sodipodi-0.dtd"
   xmlns="http://www.w3.org/2000/svg"
   xmlns:svg="http://www.w3.org/2000/svg">
  <defs
     id="defs10" />
  <sodipodi:namedview
     id="namedview8"
     pagecolor="#ffffff"
     bordercolor="#666666"
     borderopacity="1.0"
     inkscape:pageshadow="2"
     inkscape:pageopacity="0.0"
     inkscape:pagecheckerboard="0"
     showgrid="false"
     inkscape:zoom="1.5772059"
     inkscape:cx="128.39161"
     inkscape:cy="158.82517"
     inkscape:window-width="1920"
     inkscape:window-height="1017"
     inkscape:window-x="-8"
     inkscape:window-y="-8"
     inkscape:window-maximized="1"
     inkscape:current-layer="svg6" />
  <g
     id="g998"
     transform="translate(-4.888804,-5.9544863)">
    <g
       id="g969"
       transform="translate(5.1187306,5.9551756)">
      <path
         d="M 249.94,77.62 A 128.23,128.23 0 1 0 264,136 128.63,128.63 0 0 0 249.94,77.62 Z m -78,116.11 a 67.85,67.85 0 0 1 -71.78,0 68.41,68.41 0 0 1 -21.84,-21.84 67.85,67.85 0 0 1 0,-71.78 68.41,68.41 0 0 1 21.84,-21.84 67.85,67.85 0 0 1 71.78,0 68.41,68.41 0 0 1 21.84,21.84 67.85,67.85 0 0 1 0,71.78 68.41,68.41 0 0 1 -21.89,21.84 z"
         fill="#efefef"
         class="fill-efefef"
         id="path2" />
      <path
         d="m 194.38,22.06 -22.49,56.21 a 67.85,67.85 0 0 0 -71.78,0 L 77.62,22.06 a 128.23,128.23 0 0 1 116.76,0 z m 0,227.88 a 128.23,128.23 0 0 1 -116.76,0 l 22.49,-56.21 a 67.85,67.85 0 0 0 71.78,0 z M 68,136 a 67.54,67.54 0 0 0 10.27,35.89 l -56.21,22.49 a 128.23,128.23 0 0 1 0,-116.76 l 56.21,22.49 A 67.54,67.54 0 0 0 68,136 Z m 196,0 a 127.43,127.43 0 0 1 -14.06,58.38 l -56.21,-22.49 a 67.85,67.85 0 0 0 0,-71.78 L 249.94,77.62 A 127.43,127.43 0 0 1 264,136 Z"
         fill="#4d4d4d"
         class="fill-e91d62"
         id="path4" />
    </g>
    <ellipse
       style="fill:none;fill-rule:evenodd;stroke:#4d4d4d;stroke-width:7.55907;stroke-linecap:round;stroke-linejoin:round;stroke-miterlimit:4;stroke-dasharray:none"
       id="path849"
       cx="140.88881"
       cy="141.95448"
       rx="124.45047"
       ry="124.45046" />
    <ellipse
       style="fill:none;fill-rule:evenodd;stroke:#4d4d4d;stroke-width:7.55908;stroke-linecap:round;stroke-linejoin:round;stroke-miterlimit:4;stroke-dasharray:none"
       id="path849-0"
       cx="140.88881"
       cy="141.95448"
       rx="64.851402"
       ry="64.851395" />
  </g>
</svg>
