<?xml version="1.0" encoding="UTF-8" standalone="no"?>
<svg
   xmlns:dc="http://purl.org/dc/elements/1.1/"
   xmlns:cc="http://creativecommons.org/ns#"
   xmlns:rdf="http://www.w3.org/1999/02/22-rdf-syntax-ns#"
   xmlns:svg="http://www.w3.org/2000/svg"
   xmlns="http://www.w3.org/2000/svg"
   xmlns:sodipodi="http://sodipodi.sourceforge.net/DTD/sodipodi-0.dtd"
   xmlns:inkscape="http://www.inkscape.org/namespaces/inkscape"
   version="1.1"
   id="Layer_1"
   x="0px"
   y="0px"
   viewBox="0 0 96.4 96.4"
   style="enable-background:new 0 0 96.4 96.4;"
   xml:space="preserve"
   sodipodi:docname="skeletonize.svg"
   inkscape:version="1.0.2-2 (e86c870879, 2021-01-15)"><metadata
   id="metadata36"><rdf:RDF><cc:Work
       rdf:about=""><dc:format>image/svg+xml</dc:format><dc:type
         rdf:resource="http://purl.org/dc/dcmitype/StillImage" /></cc:Work></rdf:RDF></metadata><defs
   id="defs34"><inkscape:path-effect
     effect="spiro"
     id="path-effect867"
     is_visible="true"
     lpeversion="1" /><inkscape:path-effect
     effect="spiro"
     id="path-effect863"
     is_visible="true"
     lpeversion="1" /></defs><sodipodi:namedview
   pagecolor="#ffffff"
   bordercolor="#666666"
   borderopacity="1"
   objecttolerance="10"
   gridtolerance="10"
   guidetolerance="10"
   inkscape:pageopacity="0"
   inkscape:pageshadow="2"
   inkscape:window-width="1920"
   inkscape:window-height="1017"
   id="namedview32"
   showgrid="false"
   inkscape:zoom="6.366895"
   inkscape:cx="59.075123"
   inkscape:cy="35.639129"
   inkscape:window-x="1912"
   inkscape:window-y="-8"
   inkscape:window-maximized="1"
   inkscape:current-layer="Layer_1" />
<style
   type="text/css"
   id="style2">
	.st0{fill:url(#SVGID_1_);stroke:#010101;stroke-width:0.5;stroke-miterlimit:10;}
</style>
<radialGradient
   id="SVGID_1_"
   cx="35.3195"
   cy="312.3448"
   r="32.6899"
   gradientTransform="matrix(1.3296 0 0 -1.4487 -0.3686 501.885)"
   gradientUnits="userSpaceOnUse">
	<stop
   offset="0"
   style="stop-color:#858585"
   id="stop4" />
	<stop
   offset="1"
   style="stop-color:#383938"
   id="stop6" />
</radialGradient>






<path
   style="fill:#4d4d4d;fill-opacity:0.710843;stroke:none;stroke-width:1.06048px;stroke-linecap:butt;stroke-linejoin:miter;stroke-opacity:0.337398"
   d="M 91.251977,25.813474 C 91.363574,22.625063 90.496238,19.435544 88.961335,16.638673 87.426433,13.841801 85.240351,11.428942 82.731244,9.4584601 78.935114,6.4772389 74.416902,4.4996604 69.744407,3.2888463 65.071912,2.0780322 60.235286,1.6116651 55.411338,1.444916 43.944674,1.0485485 32.022244,2.4623014 22.183109,8.3642441 15.747266,12.224744 10.429512,17.938953 7.0878239,24.658823 4.3028636,30.259157 2.8875728,36.665461 3.8796177,42.840864 c 0.4960224,3.087701 1.591578,6.08876 3.2922655,8.713184 1.7006875,2.624424 4.0122368,4.864993 6.7417188,6.391382 3.056472,1.709249 6.571914,2.495341 10.071472,2.62435 3.499559,0.129009 6.995911,-0.377734 10.416908,-1.126287 3.997502,-0.874699 7.972725,-2.087394 12.064677,-2.119833 2.045976,-0.01622 4.110888,0.271162 6.014167,1.022034 1.903279,0.750872 3.640938,1.982138 4.837567,3.641764 0.586609,0.813579 1.041503,1.728574 1.279001,2.703056 0.237499,0.974483 0.252987,2.009521 -0.01184,2.976935 -0.38442,1.404306 -1.351656,2.613793 -2.56245,3.422392 -1.210794,0.808598 -2.651505,1.234114 -4.101679,1.363921 -2.900348,0.259615 -5.765022,-0.617729 -8.576081,-1.377573 -3.823765,-1.033584 -7.76685,-1.871311 -11.718151,-1.59437 -1.975651,0.138471 -3.94028,0.559629 -5.757723,1.346565 -1.817443,0.786936 -3.485545,1.946385 -4.775135,3.449491 -1.992485,2.322379 -3.014896,5.503556 -2.538013,8.526142 0.390931,2.477802 1.75102,4.74924 3.588698,6.456656 1.837678,1.707416 4.131359,2.875511 6.529751,3.61039 4.796784,1.469757 9.918468,1.248239 14.931843,1.436378 4.899315,0.183859 9.78175,0.771628 14.684449,0.796982 4.902698,0.02535 9.898407,-0.538535 14.371626,-2.545374 4.999676,-2.243025 9.13657,-6.24467 11.822649,-11.020956 2.686079,-4.776285 3.95193,-10.294482 3.936567,-15.774235 -0.02582,-9.209612 -3.821477,-18.482554 -10.731193,-24.57135 -3.454858,-3.044399 -7.636344,-5.274803 -12.11154,-6.35971 -4.475196,-1.084908 -9.237344,-1.013038 -13.652834,0.293809 -2.617634,0.774737 -5.140352,1.979615 -7.857656,2.241303 -1.358653,0.130843 -2.759794,0.01425 -4.024045,-0.500263 -1.26425,-0.514515 -2.382402,-1.450834 -2.968748,-2.683415 -0.425098,-0.893615 -0.558948,-1.914026 -0.438228,-2.89621 0.120719,-0.982183 0.489734,-1.926153 1.016219,-2.764049 1.052971,-1.675792 2.696208,-2.898512 4.418408,-3.873732 3.380091,-1.914025 7.279556,-3.024529 11.15357,-2.740759 4.890228,0.358207 9.345717,2.857605 13.459978,5.525094 4.114261,2.667488 8.165528,5.606979 12.854867,7.039717 2.035572,0.62193 4.264263,0.938012 6.272567,0.232982 1.742897,-0.611857 3.173093,-1.963996 4.073754,-3.576717 0.90066,-1.612721 1.300336,-3.471038 1.364949,-5.317084 z"
   id="path861"
   inkscape:path-effect="#path-effect863"
   inkscape:original-d="M 91.251977,25.813474 C 93.170663,23.790205 85.832181,14.59705 82.731244,9.4584601 79.630307,4.3198682 86.077929,-13.655529 55.411338,1.444916 46.158632,6.0010136 30.754872,7.0535744 22.183109,8.3642441 13.611346,9.6749147 12.275571,18.757153 7.0878239,24.658823 c -5.187747,5.901668 7.2195031,25.909259 6.8257781,33.286607 -0.393724,7.377347 10.673657,-0.413809 20.48838,1.498063 9.814723,1.911872 4.318694,-2.809957 22.916411,2.543965 9.425224,2.713338 4.85532,7.8218 1.267165,5.679991 -10.451161,-6.238411 -10.108863,2.535308 -15.24021,3.40874 -5.131347,0.873432 -13.735647,3.967896 -22.251009,3.201686 -8.515364,-0.766211 -1.693087,5.685138 -2.538013,8.526142 C 17.7114,85.645019 36.89391,91.521092 43.606618,94.307441 50.319327,97.09379 62.96077,92.724058 72.662693,92.559049 82.364615,92.394041 83.796009,75.220174 88.421909,65.763858 93.047807,56.307541 39.568316,35.253023 51.926342,35.126607 c 15.78426,-0.161465 -5.601883,-0.941375 -14.850449,-0.942375 -9.248567,-0.001 2.231709,-3.684888 4.996399,-9.533991 2.76469,-5.849102 1.169645,-0.936108 11.15357,-2.740759 9.983924,-1.804651 21.294144,7.592272 26.314845,12.564811 5.020701,4.972538 4.128281,-0.367177 6.272567,0.232982 2.144288,0.600158 3.520017,-6.870531 5.438703,-8.893801 z"
   sodipodi:nodetypes="ssssssssssssssssssssss" /><path
   style="fill:none;stroke:#ff0000;stroke-width:4.00812;stroke-linecap:round;stroke-linejoin:miter;stroke-miterlimit:4;stroke-dasharray:none;stroke-opacity:1"
   d="M 83.360232,26.236348 C 81.142089,23.076431 78.452381,20.248139 75.407794,17.874171 66.813137,11.172625 55.404861,8.316784 44.613248,9.8399225 37.352982,10.864643 30.313997,13.841998 24.816755,18.693992 c -2.62124,2.313568 -4.890463,5.049873 -6.514705,8.145892 -1.624243,3.096018 -2.591746,6.558061 -2.622138,10.054141 -0.01814,2.08719 0.300944,4.193328 1.099494,6.121801 0.798551,1.928474 2.092342,3.67405 3.807329,4.863804 2.420118,1.678931 5.508859,2.149804 8.446836,1.93986 2.937977,-0.209944 5.789199,-1.044616 8.642445,-1.775896 6.079372,-1.558129 12.450088,-2.665758 18.612087,-1.475679 6.882472,1.329226 13.225787,5.725975 16.412478,11.969392 1.375538,2.694976 2.164328,5.701952 2.173256,8.727662 0.0089,3.02571 -0.774018,6.065078 -2.342457,8.652548 -1.823484,3.008221 -4.654217,5.330756 -7.810121,6.884704 -3.155905,1.553948 -6.632018,2.373947 -10.125163,2.789188 -8.249192,0.980608 -16.753719,-0.278484 -24.364915,-3.607215"
   id="path865"
   inkscape:path-effect="#path-effect867"
   inkscape:original-d="M 83.360232,26.236348 C 80.708342,23.45 78.057529,20.662607 75.407794,17.874171 72.758059,15.085735 54.87702,12.51905 44.613248,9.8399225 34.349477,7.1607958 31.41451,15.743681 24.816755,18.693992 c -6.597754,2.950313 -6.092305,12.134399 -9.136843,18.200033 -3.044536,6.065633 3.270138,7.32478 4.906823,10.985605 1.636685,3.660824 11.391777,0.110353 17.089281,0.163964 5.697504,0.05361 12.406981,-0.982741 18.612087,-1.475679 6.205107,-0.492936 10.940575,7.980638 16.412478,11.969392 5.471904,3.988752 -0.113878,11.58785 -0.169201,17.38021 -0.05532,5.79236 -11.957933,6.450305 -17.935284,9.673892 -5.977351,3.223585 -16.244353,-2.403765 -24.364915,-3.607215" /></svg>
